<?xml version="1.0" encoding="utf-8"?>
<!-- Generator: Adobe Illustrator 15.0.0, SVG Export Plug-In . SVG Version: 6.00 Build 0)  -->
<!DOCTYPE svg PUBLIC "-//W3C//DTD SVG 1.1//EN" "http://www.w3.org/Graphics/SVG/1.1/DTD/svg11.dtd">
<svg version="1.1" id="Layer_1" xmlns="http://www.w3.org/2000/svg" xmlns:xlink="http://www.w3.org/1999/xlink" x="0px" y="0px"
	 width="612px" height="792px" viewBox="0 0 612 792" enable-background="new 0 0 612 792" xml:space="preserve">
<path fill="#F0F0EA" d="M187.751,409.45c0-2.406-0.943-3.697-3.096-3.697h-2.234v34.323h2.234c2.152,0,3.096-1.204,3.096-3.613
	V409.45z M185.602,449.62h-14.277v-53.413h14.277c7.483,0,13.16,4.729,13.16,13.329v27.441
	C198.762,445.578,193.085,449.62,185.602,449.62"/>
<path fill="#F0F0EA" d="M264.688,429.452c0-1.807-0.773-2.583-1.979-2.583h-2.752v13.551h2.752c1.205,0,1.979-0.688,1.979-2.581
	V429.452z M264.688,408.075c0-1.892-0.773-2.581-1.979-2.581h-2.752v13.207h2.752c1.205,0,1.979-0.774,1.979-2.583V408.075z
	 M264.514,449.621h-15.65v-53.415h15.65c5.42,0,10.582,3.098,10.582,10.665v7.614c0,3.441-1.293,6.708-5.248,7.915
	c3.783,1.46,5.248,4.299,5.248,7.911v8.646C275.096,446.612,269.934,449.621,264.514,449.621"/>
<rect x="220.197" y="368.173" fill="#F0F0EA" width="4.83" height="116.133"/>
<polygon fill="#F0F0EA" points="234.705,379.625 222.611,367.533 210.523,379.625 207.109,376.21 222.611,360.706 238.119,376.21 
	"/>
<polygon fill="#F0F0EA" points="210.523,487.091 207.108,483.677 222.613,468.171 238.119,483.674 234.705,487.09 222.613,475 "/>
<polygon fill="#F0F0EA" points="234.705,472.817 222.611,460.726 210.52,472.817 207.105,469.403 222.611,453.896 238.119,469.403 
	"/>
<circle fill="none" stroke="#F0F0EA" stroke-width="6" stroke-miterlimit="10" cx="223.21" cy="426.287" r="84.749"/>
</svg>
