<?xml version="1.0" encoding="utf-8"?>
<!-- Generator: Adobe Illustrator 15.0.0, SVG Export Plug-In . SVG Version: 6.00 Build 0)  -->
<!DOCTYPE svg PUBLIC "-//W3C//DTD SVG 1.1//EN" "http://www.w3.org/Graphics/SVG/1.1/DTD/svg11.dtd">
<svg version="1.1" id="Layer_1" xmlns="http://www.w3.org/2000/svg" xmlns:xlink="http://www.w3.org/1999/xlink" x="0px" y="0px"
	 width="612px" height="792px" viewBox="0 0 612 792" enable-background="new 0 0 612 792" xml:space="preserve">
<g>
	<path fill-rule="evenodd" clip-rule="evenodd" fill="#F0F0EA" d="M226.7,373.509L226.7,373.509
		c-0.005,8.33-0.012,16.661-0.019,24.991c1.405-0.184,2.813-0.363,4.221-0.536c0.011-8.176,0.023-16.355,0.036-24.532
		C229.525,373.457,228.112,373.482,226.7,373.509 M222.415,370.933c-0.13-0.391-0.262-0.785-0.395-1.178
		c-0.048-0.248,0.05-0.395,0.296-0.395c3.517,0,7.031,0,10.547,0c0.199,0,0.296,0.047,0.443,0.188
		c0.575,0.546,1.149,1.089,1.723,1.628c0.147,0.138,0.197,0.23,0.196,0.417c-0.017,9.224-0.036,18.449-0.055,27.674
		c0,0.185-0.049,0.284-0.198,0.442c-0.574,0.615-1.147,1.236-1.721,1.86c-0.147,0.161-0.246,0.223-0.442,0.249
		c-3.501,0.481-7,0.998-10.494,1.548c-0.245,0.04-0.343-0.093-0.295-0.347c0.131-0.431,0.261-0.861,0.393-1.292
		C222.414,391.464,222.414,381.199,222.415,370.933z"/>
	<path fill-rule="evenodd" clip-rule="evenodd" fill="#F0F0EA" d="M246.651,373.229L246.651,373.229
		c-1.413,0.021-2.825,0.041-4.238,0.062c-0.021,7.805-0.042,15.61-0.063,23.414c1.411-0.147,2.821-0.29,4.232-0.425
		C246.604,388.596,246.628,380.912,246.651,373.229 M248.586,369.359c0.197,0,0.294,0.044,0.442,0.176
		c0.573,0.515,1.147,1.026,1.721,1.535c0.147,0.131,0.196,0.218,0.196,0.394c-0.029,8.691-0.057,17.384-0.085,26.077
		c0,0.176-0.05,0.268-0.198,0.414c-0.575,0.567-1.151,1.139-1.727,1.715c-0.148,0.148-0.249,0.203-0.444,0.225
		c-2.674,0.287-5.347,0.597-8.018,0.926c-0.197,0.023-0.294-0.01-0.442-0.129c-0.572-0.463-1.144-0.926-1.718-1.393
		c-0.146-0.12-0.196-0.206-0.196-0.391c0.022-9.115,0.043-18.229,0.064-27.344c0-0.184,0.05-0.276,0.198-0.415
		c0.577-0.54,1.151-1.076,1.728-1.608c0.148-0.138,0.247-0.183,0.446-0.183C243.23,369.359,245.907,369.359,248.586,369.359z"/>
	<path fill-rule="evenodd" clip-rule="evenodd" fill="#F0F0EA" d="M258.099,397.576c0.13,0.332,0.261,0.662,0.392,0.994
		c0.097,0.205-0.001,0.342-0.249,0.363c-1.511,0.135-3.022,0.277-4.534,0.424c-0.246,0.025-0.344-0.097-0.244-0.322
		c0.132-0.36,0.264-0.721,0.397-1.08c0.031-9.054,0.06-18.109,0.089-27.165c-0.129-0.359-0.259-0.721-0.39-1.083
		c-0.097-0.219,0.003-0.348,0.249-0.348c1.364,0,2.727,0,4.09,0c0.197,0,0.296,0.085,0.345,0.256
		c1.394,5.294,2.79,10.52,4.185,15.687c0.017-4.85,0.033-9.699,0.048-14.548c-0.129-0.352-0.259-0.704-0.39-1.056
		c-0.097-0.212,0.001-0.339,0.249-0.339c1.511,0,3.022,0,4.535,0c0.246,0,0.345,0.125,0.245,0.334
		c-0.132,0.348-0.265,0.697-0.397,1.046c-0.029,8.725-0.057,17.449-0.086,26.173c0.129,0.326,0.261,0.651,0.392,0.977
		c0.097,0.201-0.001,0.334-0.249,0.352c-1.365,0.101-2.73,0.205-4.094,0.314c-0.196,0.019-0.296-0.059-0.345-0.224
		c-1.396-5.117-2.792-10.288-4.186-15.527C258.132,387.728,258.115,392.652,258.099,397.576"/>
	<path fill-rule="evenodd" clip-rule="evenodd" fill="#F0F0EA" d="M274.426,396.421c0.13,0.321,0.263,0.641,0.392,0.962
		c0.099,0.199,0,0.329-0.247,0.343c-1.514,0.088-3.028,0.184-4.542,0.285c-0.246,0.017-0.346-0.102-0.246-0.314
		c0.133-0.342,0.265-0.682,0.397-1.021c0.027-8.65,0.055-17.299,0.083-25.949c-0.13-0.347-0.261-0.689-0.392-1.036
		c-0.097-0.208,0.001-0.332,0.247-0.332c1.365,0,2.728,0,4.092,0c0.197,0,0.294,0.082,0.345,0.246
		c1.397,5.077,2.797,10.109,4.197,15.107c0.013-4.669,0.027-9.341,0.039-14.01c-0.13-0.339-0.261-0.677-0.393-1.018
		c-0.097-0.203,0.001-0.326,0.247-0.326c1.513,0,3.024,0,4.535,0c0.246,0,0.346,0.12,0.246,0.323
		c-0.132,0.337-0.265,0.674-0.396,1.01c-0.021,8.438-0.04,16.875-0.06,25.313c0.13,0.317,0.261,0.636,0.393,0.954
		c0.097,0.198-0.001,0.324-0.249,0.333c-1.367,0.059-2.733,0.123-4.1,0.191c-0.197,0.01-0.296-0.066-0.346-0.228
		c-1.401-4.965-2.801-9.963-4.202-15.003C274.454,386.976,274.44,391.7,274.426,396.421"/>
	<path fill-rule="evenodd" clip-rule="evenodd" fill="#F0F0EA" d="M298.831,396.576c-0.051,0.198-0.149,0.28-0.396,0.283
		c-4.021,0.056-8.04,0.159-12.06,0.305c-0.248,0.01-0.346-0.107-0.248-0.313c0.132-0.34,0.266-0.68,0.397-1.019
		c0.018-8.396,0.035-16.79,0.053-25.185c-0.13-0.322-0.261-0.644-0.393-0.964c-0.099-0.203,0.001-0.323,0.247-0.323
		c4.01,0,8.017,0,12.026,0c0.246,0,0.346,0.079,0.395,0.279c0.146,0.955,0.294,1.908,0.442,2.864c0.048,0.158-0.1,0.278-0.297,0.278
		c-2.728,0.004-5.457,0.012-8.185,0.023c-0.006,2.881-0.008,5.763-0.014,8.645c0.888-0.01,1.776-0.02,2.666-0.03
		c0.411-0.11,0.822-0.222,1.233-0.331c0.247-0.082,0.395-0.003,0.395,0.196c-0.001,1.222-0.003,2.446-0.004,3.669
		c0,0.199-0.148,0.281-0.395,0.203c-0.413-0.1-0.822-0.202-1.235-0.303c-0.889,0.011-1.776,0.025-2.665,0.039
		c-0.005,2.882-0.01,5.765-0.015,8.646c2.734-0.067,5.469-0.117,8.202-0.148c0.2-0.002,0.348,0.115,0.297,0.275
		C299.127,394.634,298.979,395.606,298.831,396.576"/>
	<path fill-rule="evenodd" clip-rule="evenodd" fill="#F0F0EA" d="M306.095,381.394L306.095,381.394
		c1.433,0,2.862,0.002,4.294,0.007c-0.003-2.862-0.004-5.722-0.006-8.584c-1.429-0.001-2.858-0.002-4.289-0.002
		C306.095,375.675,306.095,378.535,306.095,381.394 M306.492,396.489c0.097,0.197,0,0.316-0.249,0.316
		c-1.516,0-3.031,0.005-4.548,0.018c-0.248,0.002-0.346-0.117-0.248-0.316c0.132-0.319,0.264-0.638,0.396-0.957
		c0.004-8.294,0.008-16.585,0.011-24.879c-0.129-0.331-0.261-0.662-0.393-0.994c-0.099-0.198,0.001-0.317,0.246-0.317
		c3.517,0,7.034,0,10.548,0c0.197,0,0.296,0.04,0.443,0.159c0.576,0.463,1.151,0.928,1.728,1.394
		c0.147,0.12,0.196,0.199,0.196,0.359c0.004,3.889,0.008,7.777,0.011,11.667c0,0.158-0.047,0.238-0.195,0.357
		c-0.642,0.513-1.284,1.024-1.926,1.537c0.611,3.425,1.226,6.853,1.838,10.286c0.181,0.479,0.364,0.96,0.544,1.442
		c0.101,0.2,0,0.318-0.245,0.315c-1.5-0.025-2.999-0.043-4.5-0.054c-0.296-0.002-0.396-0.122-0.296-0.321
		c0.115-0.264,0.23-0.528,0.346-0.792c-0.661-3.634-1.322-7.266-1.98-10.896c-0.71-0.002-1.417-0.003-2.124-0.003
		c0,3.575,0,7.149,0,10.725C306.227,395.853,306.359,396.17,306.492,396.489z"/>
	<path fill-rule="evenodd" clip-rule="evenodd" fill="#F0F0EA" d="M320.387,369.359c0.197,0,0.345,0.079,0.443,0.2
		c0.1,0.173,0.198,0.347,0.297,0.52c0.05,0.122,0.1,0.201,0.1,0.362c0.003,0.746,0.003,1.494,0.003,2.241
		c0,0.122,0.002,0.201-0.047,0.32c-0.131,0.44-0.264,0.88-0.394,1.319c-0.048,0.16-0.195,0.239-0.395,0.238
		c-0.146-0.001-0.294-0.001-0.444-0.003c-0.197,0-0.344-0.081-0.393-0.241c-0.15-0.493-0.299-0.987-0.446-1.481
		c-0.428-0.001-0.855-0.003-1.281-0.003c-0.199,0-0.346-0.081-0.446-0.201c-0.099-0.173-0.197-0.346-0.294-0.519
		c-0.051-0.122-0.101-0.199-0.101-0.36c0-0.439,0-0.876-0.003-1.316c0-0.159,0.051-0.24,0.099-0.36
		c0.099-0.172,0.197-0.344,0.298-0.517c0.097-0.121,0.244-0.2,0.442-0.2C318.679,369.359,319.532,369.359,320.387,369.359"/>
	<path fill-rule="evenodd" clip-rule="evenodd" fill="#F0F0EA" d="M336.272,375.135c0.132,0.329,0.267,0.658,0.397,0.987
		c0.1,0.207,0.003,0.329-0.246,0.324c-1.511-0.021-3.024-0.041-4.534-0.059c-0.247-0.003-0.346-0.126-0.299-0.328
		c0.131-0.325,0.261-0.648,0.392-0.971c-0.001-0.731-0.003-1.463-0.006-2.194c-1.413-0.009-2.826-0.018-4.237-0.024
		c0.005,2.624,0.01,5.247,0.016,7.87c2.32,0.819,4.643,1.651,6.962,2.503c0.149,0.044,0.249,0.129,0.347,0.253
		c0.363,0.487,0.726,0.975,1.09,1.463c0.099,0.126,0.148,0.21,0.148,0.374c0.013,3.455,0.021,6.91,0.03,10.364
		c0,0.163-0.05,0.242-0.195,0.358c-0.575,0.447-1.148,0.893-1.725,1.338c-0.147,0.115-0.248,0.15-0.445,0.141
		c-2.683-0.141-5.366-0.262-8.053-0.359c-0.197-0.009-0.297-0.052-0.444-0.178c-0.594-0.491-1.188-0.979-1.78-1.466
		c-0.15-0.126-0.2-0.207-0.2-0.367c0-1.231-0.004-2.463-0.007-3.693c-0.132-0.324-0.264-0.648-0.397-0.972
		c-0.048-0.202,0.052-0.32,0.296-0.313c1.516,0.037,3.032,0.078,4.545,0.124c0.247,0.008,0.344,0.132,0.247,0.332
		c-0.131,0.318-0.263,0.638-0.394,0.956c0.003,0.727,0.005,1.453,0.008,2.179c1.413,0.051,2.83,0.105,4.247,0.166
		c-0.01-2.64-0.017-5.283-0.022-7.924c-2.306-0.853-4.609-1.686-6.915-2.504c-0.147-0.044-0.247-0.126-0.346-0.249
		c-0.378-0.475-0.759-0.951-1.137-1.423c-0.1-0.123-0.149-0.205-0.149-0.364c-0.006-3.397-0.013-6.795-0.02-10.193
		c0-0.161,0.049-0.241,0.197-0.361c0.59-0.468,1.181-0.936,1.771-1.404c0.147-0.122,0.246-0.161,0.444-0.161
		c2.678,0,5.355,0,8.032,0c0.2,0,0.297,0.041,0.444,0.163c0.576,0.476,1.152,0.954,1.729,1.434c0.148,0.123,0.198,0.204,0.198,0.368
		C336.268,372.596,336.27,373.865,336.272,375.135"/>
	<path fill-rule="evenodd" clip-rule="evenodd" fill="#F0F0EA" d="M357.995,386.19L357.995,386.19
		c-1.411-0.077-2.823-0.151-4.237-0.222c0.01,3.082,0.021,6.164,0.031,9.245c1.413,0.11,2.827,0.227,4.238,0.347
		C358.018,392.437,358.006,389.313,357.995,386.19 M353.715,373.041L353.715,373.041c0.011,3.082,0.021,6.164,0.03,9.246
		c1.414,0.056,2.828,0.112,4.237,0.173c-0.01-3.124-0.02-6.247-0.03-9.371C356.541,373.073,355.127,373.056,353.715,373.041z
		 M349.417,370.712c-0.132-0.339-0.264-0.678-0.397-1.015c-0.098-0.212,0-0.338,0.248-0.338c3.517,0,7.03,0,10.547,0
		c0.196,0,0.296,0.043,0.443,0.174c0.574,0.511,1.154,1.023,1.731,1.541c0.147,0.134,0.194,0.222,0.196,0.396
		c0.013,3.653,0.021,7.305,0.034,10.956c0,0.176-0.048,0.261-0.195,0.387c-0.656,0.542-1.312,1.079-1.966,1.613
		c0.66,0.602,1.319,1.207,1.979,1.816c0.146,0.141,0.195,0.232,0.195,0.408c0.013,3.667,0.025,7.333,0.037,11.001
		c0,0.177-0.05,0.259-0.198,0.376c-0.572,0.455-1.145,0.91-1.718,1.361c-0.146,0.115-0.243,0.15-0.441,0.13
		c-3.515-0.354-7.028-0.675-10.548-0.959c-0.245-0.021-0.346-0.155-0.245-0.356c0.129-0.342,0.259-0.684,0.389-1.027
		C349.479,388.355,349.448,379.534,349.417,370.712z"/>
	<path fill-rule="evenodd" clip-rule="evenodd" fill="#F0F0EA" d="M369.919,389.179L369.919,389.179
		c0.573-0.287,1.148-0.577,1.719-0.869c-0.284-2.572-0.567-5.136-0.855-7.689C370.493,383.483,370.206,386.336,369.919,389.179
		 M373.022,370.459c1.305,9.488,2.605,19.122,3.901,28.912c0.199,0.613,0.396,1.23,0.594,1.846c0.097,0.246,0,0.372-0.246,0.341
		c-1.49-0.2-2.98-0.394-4.471-0.581c-0.295-0.037-0.395-0.186-0.296-0.402c0.115-0.289,0.228-0.58,0.343-0.873
		c-0.253-2.408-0.504-4.811-0.756-7.206c-0.885,0.437-1.768,0.871-2.651,1.299c-0.192,1.818-0.385,3.632-0.577,5.443
		c0.1,0.312,0.2,0.623,0.3,0.937c0.098,0.236,0,0.359-0.246,0.332c-1.508-0.18-3.018-0.35-4.527-0.516
		c-0.245-0.027-0.343-0.171-0.245-0.381c0.193-0.541,0.391-1.082,0.584-1.623c1.251-9.056,2.504-18.234,3.761-27.545
		c-0.083-0.243-0.166-0.481-0.25-0.722c-0.099-0.225,0-0.359,0.246-0.359c1.514,0,3.023,0,4.534,0c0.246,0,0.347,0.138,0.248,0.367
		C373.186,369.97,373.104,370.215,373.022,370.459z"/>
	<path fill-rule="evenodd" clip-rule="evenodd" fill="#F0F0EA" d="M385.306,387.259c0.003,4.614,0.009,9.23,0.012,13.846
		c0.13,0.421,0.261,0.842,0.393,1.265c0.101,0.256,0,0.385-0.243,0.35c-1.507-0.225-3.01-0.443-4.515-0.656
		c-0.246-0.034-0.343-0.189-0.246-0.412c0.131-0.377,0.261-0.754,0.392-1.129c-0.006-4.594-0.014-9.189-0.018-13.782
		c-1.322-5.45-2.644-10.806-3.969-16.076c-0.23-0.297-0.459-0.592-0.689-0.887c-0.147-0.232-0.052-0.417,0.195-0.417
		c1.691,0,3.384,0,5.078,0c0.245,0,0.343,0.142,0.245,0.38c-0.064,0.222-0.132,0.443-0.197,0.665
		c0.482,2.868,0.96,5.753,1.439,8.658c0.472-2.864,0.945-5.745,1.421-8.643c-0.085-0.226-0.165-0.45-0.247-0.676
		c-0.101-0.239,0-0.383,0.294-0.383c1.675,0,3.352,0,5.029,0c0.293,0,0.392,0.197,0.244,0.442c-0.23,0.296-0.459,0.592-0.689,0.884
		C387.92,376.31,386.613,381.831,385.306,387.259"/>
	<path fill-rule="evenodd" clip-rule="evenodd" fill="#F0F0EA" d="M275.637,413.392L275.637,413.392h-1.874
		c-0.133,0-0.242,0.108-0.242,0.242v1.665c0,0.135,0.108,0.242,0.242,0.242h1.874c0.715,0,1.291-0.375,1.291-1.081
		C276.928,413.768,276.353,413.392,275.637,413.392 M276.521,420.947l-1.519-2.937c-0.062-0.119-0.218-0.216-0.353-0.216h-0.885
		c-0.133,0-0.242,0.107-0.242,0.242v2.883c0,0.134-0.108,0.24-0.242,0.24h-2.191c-0.133,0-0.242-0.106-0.242-0.24v-9.539
		c0-0.135,0.108-0.243,0.242-0.243h4.953c2.301,0,3.608,1.474,3.608,3.337c0,1.609-0.929,2.527-1.843,2.918
		c-0.124,0.054-0.172,0.182-0.105,0.297l1.874,3.262c0.067,0.117,0.013,0.209-0.121,0.209h-2.581
		C276.74,421.16,276.583,421.066,276.521,420.947z"/>
	<path fill-rule="evenodd" clip-rule="evenodd" fill="#F0F0EA" d="M283.594,420.92v-9.539c0-0.135,0.108-0.243,0.243-0.243h7.12
		c0.133,0,0.241,0.108,0.241,0.243v1.77c0,0.133-0.108,0.241-0.241,0.241h-4.446c-0.133,0-0.241,0.108-0.241,0.242v1.079
		c0,0.135,0.108,0.242,0.241,0.242h4.338c0.133,0,0.242,0.109,0.242,0.241v1.771c0,0.133-0.108,0.242-0.242,0.242h-4.338
		c-0.133,0-0.241,0.108-0.241,0.241v1.214c0,0.135,0.108,0.242,0.241,0.242h4.446c0.133,0,0.241,0.108,0.241,0.243v1.77
		c0,0.134-0.108,0.24-0.241,0.24h-7.12C283.703,421.16,283.594,421.054,283.594,420.92"/>
	<path fill-rule="evenodd" clip-rule="evenodd" fill="#F0F0EA" d="M295.099,419.551l1.137-1.617
		c0.077-0.109,0.217-0.122,0.317-0.035c0.747,0.646,1.829,1.16,3.15,1.16c0.903,0,1.461-0.301,1.461-0.798
		c0-1.321-5.862-0.224-5.862-4.087c0-1.684,1.462-3.187,4.122-3.187c1.57,0,2.947,0.428,4.024,1.247
		c0.107,0.08,0.125,0.236,0.044,0.344l-1.171,1.553c-0.079,0.106-0.23,0.123-0.337,0.046c-0.842-0.606-1.888-0.905-2.84-0.905
		c-0.778,0-1.12,0.256-1.12,0.691c0,1.233,5.862,0.301,5.862,4.027c0,2.014-1.538,3.352-4.323,3.352
		c-1.98,0-3.392-0.574-4.421-1.434C295.039,419.823,295.022,419.66,295.099,419.551"/>
	<path fill-rule="evenodd" clip-rule="evenodd" fill="#F0F0EA" d="M315.159,416.157L315.159,416.157c0-1.638-1.103-2.9-2.814-2.9
		c-1.711,0-2.83,1.263-2.83,2.9c0,1.623,1.119,2.901,2.83,2.901C314.057,419.059,315.159,417.78,315.159,416.157 M306.792,416.157
		c0-3.05,2.381-5.185,5.553-5.185c3.171,0,5.535,2.135,5.535,5.185c0,3.051-2.364,5.185-5.535,5.185
		C309.173,421.342,306.792,419.208,306.792,416.157z"/>
	<path fill-rule="evenodd" clip-rule="evenodd" fill="#F0F0EA" d="M325.732,413.392L325.732,413.392h-1.872
		c-0.138,0-0.243,0.108-0.243,0.242v1.665c0,0.135,0.105,0.242,0.243,0.242h1.872c0.716,0,1.289-0.375,1.289-1.081
		C327.021,413.768,326.448,413.392,325.732,413.392 M326.616,420.947l-1.52-2.938c-0.062-0.118-0.221-0.215-0.353-0.215h-0.884
		c-0.138,0-0.243,0.107-0.243,0.242v2.883c0,0.134-0.109,0.24-0.243,0.24h-2.19c-0.132,0-0.243-0.106-0.243-0.24v-9.539
		c0-0.135,0.111-0.243,0.243-0.243h4.952c2.301,0,3.606,1.474,3.606,3.337c0,1.609-0.928,2.527-1.842,2.918
		c-0.123,0.054-0.171,0.182-0.105,0.297l1.874,3.262c0.067,0.117,0.013,0.209-0.12,0.209h-2.58
		C326.834,421.16,326.676,421.066,326.616,420.947z"/>
	<path fill-rule="evenodd" clip-rule="evenodd" fill="#F0F0EA" d="M335.713,420.92v-7.286c0-0.134-0.108-0.242-0.243-0.242h-2.422
		c-0.135,0-0.243-0.108-0.243-0.241v-1.77c0-0.135,0.108-0.243,0.243-0.243h7.99c0.135,0,0.241,0.108,0.241,0.243v1.77
		c0,0.133-0.106,0.241-0.241,0.241h-2.408c-0.135,0-0.243,0.108-0.243,0.242v7.286c0,0.134-0.108,0.24-0.242,0.24h-2.188
		C335.82,421.16,335.713,421.054,335.713,420.92"/>
	<path fill-rule="evenodd" clip-rule="evenodd" fill="#F0F0EA" d="M368.068,416.785c-0.049-0.016-0.169-0.105-0.284-0.176
		l-4.045-2.488c-0.113-0.07-0.299-0.07-0.411,0l-4.251,2.617c-0.049,0.022-0.099,0.037-0.145,0.04
		c-0.082,0.007-0.232-0.101-0.346-0.171l-3.934-2.484c-0.112-0.071-0.296-0.071-0.408-0.001l-3.989,2.485
		c-0.113,0.07-0.265,0.039-0.34-0.072l-0.074-0.112c-0.074-0.11-0.043-0.257,0.071-0.327l4.365-2.672
		c0.049-0.025,0.1-0.04,0.145-0.043c0.082-0.006,0.233,0.098,0.347,0.168l3.986,2.433c0.115,0.07,0.3,0.069,0.413-0.001l4.253-2.615
		c0.047-0.025,0.097-0.039,0.143-0.041c0.083-0.006,0.232,0.1,0.348,0.17l4.044,2.543c0.112,0.07,0.297,0.07,0.411,0l4.194-2.613
		c0.049-0.025,0.101-0.04,0.146-0.043c0.082-0.006,0.231,0.099,0.344,0.169l4.159,2.601c0.114,0.069,0.15,0.221,0.079,0.332
		l-0.03,0.048c-0.069,0.113-0.221,0.147-0.332,0.077l-3.988-2.485c-0.114-0.07-0.299-0.07-0.411,0l-3.99,2.485
		c-0.113,0.07-0.245,0.134-0.288,0.158c-0.03,0.014-0.06,0.027-0.087,0.027C368.13,416.793,368.1,416.793,368.068,416.785"/>
	<path fill-rule="evenodd" clip-rule="evenodd" fill="#F0F0EA" d="M368.068,418.981c-0.049-0.014-0.169-0.104-0.284-0.175
		l-4.045-2.488c-0.113-0.07-0.299-0.07-0.411,0l-4.251,2.617c-0.049,0.023-0.099,0.037-0.146,0.043
		c-0.08,0.003-0.23-0.102-0.344-0.174l-3.934-2.484c-0.112-0.071-0.296-0.072-0.408-0.002l-4.047,2.488
		c-0.113,0.07-0.258,0.032-0.322-0.084l-0.051-0.092c-0.064-0.117-0.026-0.268,0.088-0.338l4.365-2.673
		c0.049-0.024,0.1-0.039,0.145-0.041c0.083-0.008,0.233,0.1,0.346,0.17l3.935,2.485c0.112,0.07,0.295,0.072,0.408,0.002l4.252-2.616
		c0.05-0.024,0.102-0.039,0.146-0.041c0.082-0.007,0.23,0.098,0.346,0.169l4.042,2.486c0.115,0.072,0.3,0.07,0.412,0l4.196-2.614
		c0.05-0.024,0.097-0.039,0.143-0.044c0.085-0.005,0.235,0.101,0.348,0.173l4.158,2.601c0.114,0.069,0.148,0.219,0.079,0.332
		l-0.03,0.047c-0.069,0.113-0.22,0.146-0.334,0.075l-3.933-2.483c-0.112-0.071-0.296-0.072-0.408,0l-3.99,2.486
		c-0.113,0.07-0.245,0.135-0.288,0.156c-0.03,0.016-0.06,0.028-0.087,0.027C368.13,418.99,368.1,418.99,368.068,418.981"/>
	<path fill-rule="evenodd" clip-rule="evenodd" fill="#F0F0EA" d="M251.136,416.785c-0.049-0.016-0.169-0.105-0.284-0.176
		l-4.046-2.488c-0.112-0.07-0.297-0.07-0.411,0l-4.25,2.617c-0.05,0.022-0.1,0.037-0.146,0.04c-0.083,0.007-0.232-0.101-0.345-0.171
		l-3.933-2.484c-0.113-0.071-0.297-0.071-0.41-0.001l-3.989,2.485c-0.114,0.07-0.266,0.039-0.339-0.072l-0.075-0.112
		c-0.074-0.11-0.042-0.257,0.074-0.327l4.364-2.672c0.048-0.025,0.099-0.04,0.143-0.043c0.083-0.006,0.233,0.098,0.349,0.168
		l3.986,2.433c0.113,0.07,0.299,0.069,0.413-0.001l4.25-2.615c0.05-0.025,0.1-0.039,0.145-0.041c0.085-0.006,0.233,0.1,0.346,0.17
		l4.047,2.543c0.112,0.07,0.296,0.07,0.41,0l4.193-2.613c0.051-0.025,0.1-0.04,0.146-0.043c0.083-0.006,0.233,0.099,0.346,0.169
		l4.16,2.601c0.112,0.069,0.148,0.221,0.078,0.332l-0.029,0.048c-0.071,0.113-0.221,0.147-0.334,0.077l-3.988-2.485
		c-0.114-0.07-0.297-0.07-0.411,0l-3.987,2.485c-0.114,0.07-0.248,0.134-0.293,0.158c-0.028,0.014-0.057,0.027-0.085,0.027
		C251.2,416.793,251.168,416.793,251.136,416.785"/>
	<path fill-rule="evenodd" clip-rule="evenodd" fill="#F0F0EA" d="M251.136,418.981c-0.049-0.014-0.169-0.104-0.284-0.175
		l-4.046-2.488c-0.112-0.07-0.297-0.07-0.411,0l-4.25,2.617c-0.05,0.023-0.1,0.037-0.146,0.043
		c-0.083,0.003-0.232-0.102-0.345-0.174l-3.933-2.484c-0.113-0.071-0.297-0.072-0.41-0.002l-4.044,2.488
		c-0.115,0.07-0.26,0.032-0.325-0.084l-0.05-0.092c-0.066-0.117-0.025-0.268,0.09-0.338l4.364-2.673
		c0.048-0.024,0.099-0.039,0.143-0.041c0.084-0.008,0.233,0.1,0.346,0.17l3.934,2.485c0.112,0.07,0.297,0.072,0.411,0.002
		l4.25-2.616c0.05-0.024,0.1-0.039,0.144-0.041c0.085-0.007,0.233,0.098,0.347,0.169l4.045,2.486c0.114,0.072,0.297,0.07,0.411,0
		l4.193-2.614c0.051-0.024,0.1-0.039,0.146-0.044c0.083-0.005,0.232,0.101,0.346,0.173l4.16,2.601
		c0.114,0.069,0.147,0.219,0.076,0.332l-0.029,0.047c-0.07,0.113-0.22,0.146-0.332,0.075l-3.935-2.483
		c-0.113-0.071-0.295-0.072-0.41,0l-3.986,2.486c-0.114,0.07-0.248,0.135-0.293,0.156c-0.028,0.016-0.057,0.028-0.085,0.027
		C251.2,418.99,251.168,418.99,251.136,418.981"/>
</g>
</svg>
