<?xml version="1.0" encoding="utf-8"?>
<!-- Generator: Adobe Illustrator 15.0.0, SVG Export Plug-In . SVG Version: 6.00 Build 0)  -->
<!DOCTYPE svg PUBLIC "-//W3C//DTD SVG 1.1//EN" "http://www.w3.org/Graphics/SVG/1.1/DTD/svg11.dtd">
<svg version="1.1" id="Layer_1" xmlns="http://www.w3.org/2000/svg" xmlns:xlink="http://www.w3.org/1999/xlink" x="0px" y="0px"
	 width="612px" height="792px" viewBox="0 0 612 792" enable-background="new 0 0 612 792" xml:space="preserve">
<g>
	<circle fill="none" stroke="#FFFFFF" stroke-width="4" stroke-miterlimit="10" cx="454.208" cy="534.877" r="7.675"/>
	<path fill="none" stroke="#FFFFFF" stroke-width="4" stroke-miterlimit="10" d="M454.208,609.472
		c0,18.367-13.133,33.263-29.338,33.263c-16.199,0-29.332-14.896-29.332-33.263"/>
	<polyline fill="none" stroke="#FFFFFF" stroke-width="4" stroke-miterlimit="10" points="449.358,540.769 449.358,609.472 
		459.059,609.472 459.059,540.769 	"/>
	<polyline fill="none" stroke="#FFFFFF" stroke-width="4" stroke-miterlimit="10" points="395.538,611.33 395.538,580.477 
		409.39,596.182 	"/>
	<path fill="none" stroke="#FFFFFF" stroke-width="4" stroke-miterlimit="10" d="M454.208,609.472
		c0,18.367,13.131,33.263,29.335,33.263c16.203,0,29.33-14.896,29.33-33.263"/>
	<polyline fill="none" stroke="#FFFFFF" stroke-width="4" stroke-miterlimit="10" points="512.873,611.33 512.873,580.477 
		499.024,596.182 	"/>
</g>
<g>
	<path fill="none" stroke="#F0F0EA" stroke-width="4" stroke-miterlimit="10" d="M144.748,414.185c0,2.985-2.347,5.403-5.235,5.403
		c-2.893,0-5.239-2.418-5.239-5.403c0-2.982,2.347-5.407,5.239-5.407C142.401,408.777,144.748,411.202,144.748,414.185"/>
	<path fill="none" stroke="#F0F0EA" stroke-width="4" stroke-miterlimit="10" d="M125.7,404.263"/>
	<path fill="none" stroke="#F0F0EA" stroke-width="4" stroke-miterlimit="10" d="M321.359,419.492"/>
	<path fill="none" stroke="#F0F0EA" stroke-width="4" stroke-miterlimit="10" d="M320.397,421.669"/>
	<path fill="none" stroke="#F0F0EA" stroke-width="4" stroke-miterlimit="10" d="M321.359,423.864"/>
	<path fill="none" stroke="#F0F0EA" stroke-width="4" stroke-miterlimit="10" d="M159.2,446.035
		c5.581,8.856,14.827,16.894,24.5,20.761c0,0,1.021,0.294,1.667,0.294c2.303,0,4.167-1.925,4.167-4.3c0-0.512-0.086-1-0.242-1.452
		l0.131,0.477c-1.382-4.821-2.062-12.244-5.165-14.101"/>
	<path fill="none" stroke="#F0F0EA" stroke-width="4" stroke-miterlimit="10" d="M319.061,408.216
		c2.607,2.986,4.192,6.936,4.192,11.271c0,5.534-2.58,10.441-6.564,13.509"/>
	<path fill="none" stroke="#F0F0EA" stroke-width="4" stroke-miterlimit="10" d="M296.894,411.323
		c-11.414-2.328-23.338-11.061-45.554-12.519c0,0-42.417-3.567-104.196,1.804c-9.32,0.536-45.383,5.256-54.354,6.312l0.598-0.091
		c-1.051,0-1.901,0.882-1.901,1.964c0,0.949,1.304,1.891,1.304,1.891l24.406,13.223c0.498,0.353,0.821,0.942,0.821,1.611
		c0,0.948-0.79,1.592-0.79,1.592c-2.656,0.938-29.243,0.084-29.494,0.084c-1.008,0-1.824,0.848-1.824,1.887
		c0,0.329,0.223,0.898,0.223,0.898c1.154,6.17,50.266,16.523,50.266,16.523c1.289,0.197,2.614,0.299,3.955,0.299
		c14.975,0,27.109-12.523,27.109-27.978c0-3.183-0.516-6.237-1.46-9.081"/>
	<path fill="none" stroke="#F0F0EA" stroke-width="4" stroke-miterlimit="10" d="M151.306,444.422c0,0,1.028,0.511,11.17,1.665
		c121.589,11.031,119.664-18.931,139.717-19.291c6.595-0.117,8.113,1.292,11.231,3.471c0,0,11.519,9.872,16.884,12.747
		c5.378,2.882,9.922,5.776,13.484,5.823c3.56,0.044,6.196-0.758,2.783-7.687c-3.404-6.931-6.914-14.658-6.914-19.242
		c0-4.581,2.786-6.237,6.298-11.728c3.51-5.485,15.458-18.25-10.761-8.484c-6.947,2.587-13.011,4.974-21.756,9.093
		c-5.135,2.419-14.581,1.47-18.507,0.083"/>
	<path fill="none" stroke="#F0F0EA" stroke-width="4" stroke-miterlimit="10" d="M270.786,402.465
		c6.111-7.659,17.712-14.735,27.745-16.002c2.885,2.56,4.723,6.36,4.723,10.601c0,5.475-3.06,11.434-7.497,13.721"/>
	<path fill="none" stroke="#F0F0EA" stroke-width="4" stroke-miterlimit="10" d="M297.688,428.069
		c3.803,2.441,6.331,6.789,6.331,11.754c0,4.842-2.413,9.105-6.067,11.572c0,0-14.399-6.655-19.476-12.669"/>
	<path fill="none" stroke="#F0F0EA" stroke-width="4" stroke-miterlimit="10" d="M238.284,446.792l21.83,13.856v0.004
		c0.282,0.184,0.616,0.289,0.98,0.289c1.017,0,1.85-0.857,1.85-1.91c0-0.05-0.005-0.104-0.013-0.146l-0.007,0.309
		c0.007-0.263,0.02-0.519,0.02-0.78c0-5.646-2.774-10.623-6.993-13.566l0.22,0.158"/>
	<path fill="none" stroke="#F0F0EA" stroke-width="4" stroke-miterlimit="10" d="M277.837,405.024
		c5.565-5.886,15.191-12.106,23.281-13.551"/>
	<path fill="none" stroke="#F0F0EA" stroke-width="4" stroke-miterlimit="10" d="M286.567,407.884
		c4.191-4.437,10.771-8.813,16.527-10.842"/>
	<path fill="none" stroke="#F0F0EA" stroke-width="4" stroke-miterlimit="10" d="M284.064,435.772
		c4.785,5.062,10.857,8.791,17.611,10.651"/>
	<path fill="none" stroke="#F0F0EA" stroke-width="4" stroke-miterlimit="10" d="M291.865,431.733
		c3.338,3.535,7.3,6.415,11.682,8.467"/>
	<path fill="none" stroke="#F0F0EA" stroke-width="4" stroke-miterlimit="10" d="M323.346,411.634
		c7.234-3.455,16.479-5.832,24.537-4.208"/>
	<path fill="none" stroke="#F0F0EA" stroke-width="4" stroke-miterlimit="10" d="M323.216,416.741
		c5.882-2.176,12.93-3.584,19.506-2.957"/>
	<path fill="none" stroke="#F0F0EA" stroke-width="4" stroke-miterlimit="10" d="M345.74,440.2
		c-7.969-0.006-18.893-5.344-25.54-10.316"/>
	<path fill="none" stroke="#F0F0EA" stroke-width="4" stroke-miterlimit="10" d="M169.55,445.612
		c3.516,8.041,9.609,14.812,17.463,19.999"/>
	<path fill="none" stroke="#F0F0EA" stroke-width="4" stroke-miterlimit="10" d="M261.714,459.831
		c-3.568-5.543-8.465-10.326-14.359-14.219"/>
	<path fill="none" stroke="#F0F0EA" stroke-width="4" stroke-miterlimit="10" d="M176.973,447.254
		c2.787,5.638,6.865,9.341,11.933,13.534"/>
	
		<line fill="none" stroke="#F0F0EA" stroke-width="4" stroke-miterlimit="10" x1="323.614" y1="421.669" x2="339.661" y2="421.669"/>
	<path fill="none" stroke="#F0F0EA" stroke-width="4" stroke-miterlimit="10" d="M341.47,430.734
		c-6.787-0.484-14.44-2.83-19.847-5.423"/>
</g>
</svg>
