<?xml version="1.0" encoding="utf-8"?>
<!-- Generator: Adobe Illustrator 15.0.0, SVG Export Plug-In . SVG Version: 6.00 Build 0)  -->
<!DOCTYPE svg PUBLIC "-//W3C//DTD SVG 1.1//EN" "http://www.w3.org/Graphics/SVG/1.1/DTD/svg11.dtd">
<svg version="1.1" id="Layer_1" xmlns="http://www.w3.org/2000/svg" xmlns:xlink="http://www.w3.org/1999/xlink" x="0px" y="0px"
	 width="612px" height="792px" viewBox="0 0 612 792" enable-background="new 0 0 612 792" xml:space="preserve">
<path fill="#A07264" d="M322.985,397.6c-0.181-0.052-0.631-0.385-1.051-0.646l-14.927-9.183c-0.419-0.258-1.098-0.258-1.519,0
	l-15.686,9.653c-0.185,0.093-0.367,0.144-0.536,0.154c-0.306,0.021-0.855-0.369-1.272-0.631l-14.514-9.166
	c-0.42-0.265-1.095-0.265-1.514-0.006l-14.719,9.176c-0.419,0.261-0.98,0.14-1.255-0.27l-0.272-0.414
	c-0.275-0.408-0.154-0.95,0.266-1.208l16.104-9.865c0.186-0.091,0.368-0.143,0.535-0.155c0.306-0.02,0.859,0.363,1.281,0.622
	l14.714,8.977c0.421,0.258,1.1,0.256,1.521-0.003l15.687-9.65c0.184-0.093,0.367-0.146,0.534-0.158
	c0.309-0.02,0.857,0.371,1.274,0.631l14.935,9.384c0.417,0.261,1.094,0.262,1.515,0.002l15.475-9.649
	c0.185-0.091,0.371-0.143,0.537-0.155c0.307-0.02,0.858,0.367,1.274,0.627l15.354,9.592c0.416,0.262,0.545,0.814,0.281,1.232
	l-0.107,0.174c-0.26,0.419-0.812,0.547-1.23,0.286l-14.718-9.176c-0.42-0.259-1.098-0.259-1.515,0l-14.721,9.176
	c-0.419,0.261-0.908,0.495-1.074,0.578c-0.106,0.053-0.211,0.105-0.316,0.105C323.213,397.635,323.099,397.635,322.985,397.6"/>
<path fill="#A07264" d="M322.985,405.713c-0.181-0.053-0.631-0.389-1.051-0.648l-14.927-9.184c-0.419-0.257-1.098-0.257-1.519,0
	l-15.686,9.656c-0.185,0.092-0.367,0.144-0.536,0.156c-0.306,0.021-0.855-0.368-1.272-0.634l-14.514-9.167
	c-0.42-0.265-1.095-0.269-1.517-0.012l-14.924,9.184c-0.421,0.26-0.956,0.119-1.194-0.31l-0.187-0.339
	c-0.239-0.431-0.093-0.988,0.327-1.247l16.104-9.863c0.186-0.093,0.368-0.146,0.535-0.155c0.31-0.025,0.858,0.369,1.274,0.631
	l14.516,9.167c0.418,0.265,1.096,0.268,1.518,0.01l15.684-9.653c0.183-0.093,0.367-0.146,0.536-0.155
	c0.307-0.023,0.858,0.364,1.277,0.624l14.924,9.18c0.42,0.26,1.099,0.259,1.519-0.004l15.478-9.646
	c0.184-0.093,0.368-0.146,0.536-0.158c0.307-0.021,0.857,0.369,1.274,0.631l15.354,9.594c0.416,0.263,0.545,0.812,0.283,1.229
	l-0.107,0.174c-0.262,0.418-0.811,0.544-1.229,0.279l-14.518-9.166c-0.418-0.264-1.093-0.266-1.514-0.004l-14.715,9.18
	c-0.419,0.26-0.908,0.495-1.074,0.576c-0.106,0.053-0.211,0.105-0.316,0.104C323.213,405.745,323.099,405.745,322.985,405.713"/>
</svg>
